<?xml version="1.0" encoding="UTF-8" standalone="no"?>
<svg xmlns:dc="http://purl.org/dc/elements/1.1/" xmlns:cc="http://creativecommons.org/ns#" xmlns:rdf="http://www.w3.org/1999/02/22-rdf-syntax-ns#" xmlns:svg="http://www.w3.org/2000/svg" xmlns="http://www.w3.org/2000/svg" xmlns:sodipodi="http://sodipodi.sourceforge.net/DTD/sodipodi-0.dtd" xmlns:inkscape="http://www.inkscape.org/namespaces/inkscape" width="16" height="16" viewBox="0 0 16 16" id="svg5529" version="1.1" inkscape:version="0.91 r13725" sodipodi:docname="d.svg">
  <defs id="defs5531"/>
  <sodipodi:namedview id="base" pagecolor="#ffffff" bordercolor="#666666" borderopacity="1.0" inkscape:pageopacity="0.0" inkscape:pageshadow="2" inkscape:zoom="22.627417" inkscape:cx="-5.1735945" inkscape:cy="7.3457525" inkscape:document-units="px" inkscape:current-layer="layer1" showgrid="true" units="px" inkscape:snap-bbox="true" inkscape:bbox-nodes="true" inkscape:bbox-paths="true" inkscape:snap-bbox-edge-midpoints="true" inkscape:snap-bbox-midpoints="true" inkscape:window-width="1366" inkscape:window-height="705" inkscape:window-x="-8" inkscape:window-y="-8" inkscape:window-maximized="1">
    <inkscape:grid type="xygrid" id="grid5537"/>
  </sodipodi:namedview>
  
  <g inkscape:label="Layer 1" inkscape:groupmode="layer" id="layer1" transform="translate(0,-1036.3622)">
    <path style="color:#000000;font-style:normal;font-variant:normal;font-weight:normal;font-stretch:normal;font-size:medium;line-height:normal;font-family:sans-serif;text-indent:0;text-align:start;text-decoration:none;text-decoration-line:none;text-decoration-style:solid;text-decoration-color:#000000;letter-spacing:normal;word-spacing:normal;text-transform:none;direction:ltr;block-progression:tb;writing-mode:lr-tb;baseline-shift:baseline;text-anchor:start;white-space:normal;clip-rule:nonzero;display:inline;overflow:visible;visibility:visible;opacity:1;isolation:auto;mix-blend-mode:normal;color-interpolation:sRGB;color-interpolation-filters:linearRGB;solid-color:#000000;solid-opacity:1;fill:#000000;fill-opacity:1;fill-rule:evenodd;stroke:none;stroke-width:1px;stroke-linecap:round;stroke-linejoin:round;stroke-miterlimit:4;stroke-dasharray:none;stroke-dashoffset:0;stroke-opacity:1;color-rendering:auto;image-rendering:auto;shape-rendering:auto;text-rendering:auto;enable-background:accumulate" d="M 4.9863281 3 A 0.99711215 0.99711215 0 0 0 4.0058594 4.0136719 L 4.0058594 11.873047 A 0.99711215 0.99711215 0 0 0 4.5371094 12.884766 A 0.99711215 0.99711215 0 0 0 4.6269531 12.927734 A 0.99711215 0.99711215 0 0 0 4.6289062 12.927734 A 0.99711215 0.99711215 0 0 0 4.7226562 12.958984 A 0.99711215 0.99711215 0 0 0 4.78125 12.972656 A 0.99711215 0.99711215 0 0 0 4.8378906 12.984375 A 0.99711215 0.99711215 0 0 0 4.9375 12.996094 A 0.99711215 0.99711215 0 0 0 5.0507812 12.998047 L 7.0039062 12.998047 A 0.99711215 0.99711215 0 0 0 7.1894531 12.982422 C 9.8501173 12.81753 12.003906 10.668421 12.003906 8.0117188 C 12.003906 5.3629956 9.8636984 3.2218486 7.2148438 3.0449219 A 0.99711215 0.99711215 0 0 0 7.0195312 3.0273438 L 5.2285156 3.0273438 A 0.99711215 0.99711215 0 0 0 4.9863281 3 z M 6 5.0214844 L 6.8632812 5.0214844 C 8.6424788 5.0214844 10.009766 6.3571187 10.009766 8.0117188 C 10.009766 9.6654188 8.6423635 11.003906 6.8632812 11.003906 L 6 11.003906 L 6 5.0214844 z " transform="translate(0,1036.3622)" id="path5108"/>
  </g>

	
	<metadata>
		<rdf:RDF xmlns:rdf="http://www.w3.org/1999/02/22-rdf-syntax-ns#" xmlns:rdfs="http://www.w3.org/2000/01/rdf-schema#" xmlns:dc="http://purl.org/dc/elements/1.1/">
			<rdf:Description about="https://iconscout.com/legal#licenses" dc:title="D, Character, Alphabet, Letter" dc:description="D, Character, Alphabet, Letter" dc:publisher="Iconscout" dc:date="2016-12-14" dc:format="image/svg+xml" dc:language="en">
				<dc:creator>
					<rdf:Bag>
						<rdf:li>Mohit Gandhi</rdf:li>
					</rdf:Bag>
				</dc:creator>
			</rdf:Description>
		</rdf:RDF>
    </metadata></svg>
